<svg xmlns="http://www.w3.org/2000/svg" viewBox="0 0 674.17 105.85"><defs><style>.cls-1{fill:#4d4084;}.cls-2{fill:#0071ce;}.cls-3{fill:#009ade;}.cls-4{fill:#10cfc9;}</style></defs><g id="Layer_2" data-name="Layer 2"><g id="Layer_1-2" data-name="Layer 1"><path class="cls-1" d="M52.93,23.52V0a52.93,52.93,0,1,0,0,105.85V82.33a29.41,29.41,0,1,1,0-58.81Z"/><rect class="cls-2" x="62.71" width="23.52" height="23.52"/><rect class="cls-3" x="86.23" y="40.26" width="23.52" height="23.52"/><rect class="cls-4" x="62.71" y="82.33" width="23.52" height="23.52"/><path class="cls-1" d="M203.07,64.76l9.41,10Q202.22,87.27,185.4,87.27q-15.3,0-25.32-9.4t-10-24.8q0-15.58,10-25t24.9-9.45q16.33,0,26.51,12.54l-9.51,9.69a21,21,0,0,0-7.55-6.6,21.37,21.37,0,0,0-10.12-2.43,19.33,19.33,0,0,0-13.73,5.66q-5.94,5.66-5.94,15.34,0,9.88,5.89,15.59A20.12,20.12,0,0,0,185,74.07Q196.23,74.07,203.07,64.76Z"/><path class="cls-1" d="M268.35,86.23,255.24,64.85H243.93V86.23H229.77V19.62h27.56q11.12,0,18.29,5.8t7.17,16a22.35,22.35,0,0,1-3.56,12.5,23,23,0,0,1-9.55,8.31l14.73,24ZM254.86,32.64H243.93V51.93h10.93q13.88,0,13.87-9.79c0-3.23-1.13-5.62-3.37-7.17S259.61,32.64,254.86,32.64Z"/><path class="cls-1" d="M297.42,52.88q0-14.82,9.89-24.56a33.26,33.26,0,0,1,24.32-9.74,33.75,33.75,0,0,1,24.52,9.74q10,9.74,10,24.56t-10,24.66a33.78,33.78,0,0,1-24.52,9.73,33.29,33.29,0,0,1-24.32-9.73Q297.43,67.79,297.42,52.88Zm14.54,0a21.75,21.75,0,0,0,5.42,15Q322.8,74,332,74q9,0,14.4-6.08a21.9,21.9,0,0,0,5.36-15A21.35,21.35,0,0,0,346.22,38,18.33,18.33,0,0,0,332,31.88q-9.12,0-14.58,6.08A21.5,21.5,0,0,0,312,52.88Z"/><path class="cls-1" d="M391,19.62l10.26,42.67L412,19.62h15.11l10.74,42.67,10.26-42.67h15.11L445.46,86.23H431l-11.4-44-11.5,44H393.68L375.91,19.62Z"/><path class="cls-1" d="M478.91,86.23V19.62h21.95a48.82,48.82,0,0,1,13.44,1.81,40.76,40.76,0,0,1,11.78,5.51,26,26,0,0,1,8.7,10.31A34.35,34.35,0,0,1,538,52.5a35.19,35.19,0,0,1-3.23,15.44,27.16,27.16,0,0,1-8.65,10.55,40.81,40.81,0,0,1-11.83,5.79,46,46,0,0,1-13.44,2Zm19.76-53.59h-5.61V73.21h5.71q24.88,0,24.89-20.71Q523.66,32.64,498.67,32.64Z"/><path class="cls-1" d="M590.55,86.23V19.62h14.06V86.23Z"/><path class="cls-1" d="M621.91,19.62h52.26v13h-19.1V86.23H641V32.64H621.91Z"/></g></g></svg>